<svg id="Layer_1" data-name="Layer 1" xmlns="http://www.w3.org/2000/svg" viewBox="0 0 36.74 57.76"><defs><style>.cls-1{fill:#fff;}.cls-2{fill:#030304;}</style></defs><title>Afstuderen</title><polygon class="cls-1" points="35.6 50.26 31.75 24.79 30.72 17.96 28.18 1.14 4.53 4.71 4.54 4.75 4.53 4.74 1.14 8.85 4.71 32.5 13.71 31.14 17.56 56.62 32.21 54.4 35.57 50.29 35.56 50.27 35.6 50.26"/><path class="cls-2" d="M36.73,50.09,29.3,1A1.13,1.13,0,0,0,28,0L4.36,3.59a1.13,1.13,0,0,0-.76.48L.26,8.13A1.14,1.14,0,0,0,0,9L3.59,32.67a1,1,0,0,0,.06.17,1.07,1.07,0,0,0,.08.22,1.06,1.06,0,0,0,.18.22,1.07,1.07,0,0,0,.09.11H4l.13.07a1.17,1.17,0,0,0,.25.12l.13,0a1.1,1.1,0,0,0,.19,0l.08,0h.09l7.86-1.19,3.68,24.35a1.07,1.07,0,0,0,.06.17,1.12,1.12,0,0,0,.08.21,1.09,1.09,0,0,0,.15.18,1,1,0,0,0,.11.14l0,0,0,0a1.12,1.12,0,0,0,.2.11l.11.06a1.12,1.12,0,0,0,.35.06h.19l14.65-2.22a1.14,1.14,0,0,0,.71-.41L36.45,51v0A1.13,1.13,0,0,0,36.73,50.09Zm-2.43-.79L21.9,51.18,18.22,26.83a1.14,1.14,0,0,0-1.13-1h-.17L9.06,27.06l0-.33.1,0a.83.83,0,1,0-.32-1.49l-.32-2.09a.82.82,0,0,0,.61-.63.83.83,0,0,0-.66-1,.81.81,0,0,0-.19,0L7.9,19.35A.81.81,0,0,0,8.09,19a.82.82,0,0,0-.37-.85l-.42-2.79a.73.73,0,0,0-.14-.92L5.83,5.67h.09a.8.8,0,0,0,1.35-.2l2.15-.33A.81.81,0,0,0,9,5.68.83.83,0,1,0,10,5l5-.76a.83.83,0,0,0,.29.12.82.82,0,0,0,.78-.28L27.22,2.44ZM14.91,31.47l1.44-1.76,3.39,22.45L18.3,53.91Zm-7.46-.54,1.21-1.5,5.67-.86-1.23,1.5ZM3.79,7.43,6.89,28,5.46,29.76,2.35,9.18ZM31.6,53.34,20.33,55l1.24-1.5,11.27-1.7Z"/><path class="cls-2" d="M15.34,16.32a.76.76,0,0,0,.15,1.06l2,1.46a.76.76,0,0,0,.91-1.22l-.54-.4L26.3,16a.76.76,0,0,0,.64-.86l-.53-3.68a.77.77,0,0,0-.86-.64L23,11.14a.76.76,0,0,0,.22,1.51L25,12.38l.32,2.18L17.7,15.7l.34-.46a.76.76,0,0,0-1.22-.91Z"/><ellipse class="cls-2" cx="9.54" cy="15.9" rx="0.83" ry="0.83" transform="translate(-7.9 22.2) rotate(-78.89)"/><ellipse class="cls-2" cx="10.54" cy="19.47" rx="0.83" ry="0.83" transform="translate(-10.59 26.06) rotate(-78.9)"/><path class="cls-2" d="M8.36,8.93a.8.8,0,0,0,0-.39.83.83,0,0,0-1.63,0,.8.8,0,0,0,0,.38.82.82,0,0,0,.65.67A.83.83,0,0,0,8.36,8.93Z"/><ellipse class="cls-2" cx="10.81" cy="9.41" rx="0.83" ry="0.83" transform="translate(-0.5 18.21) rotate(-78.91)"/><ellipse class="cls-2" cx="8.54" cy="12.34" rx="0.83" ry="0.83" transform="translate(-5.21 18.34) rotate(-78.89)"/><ellipse class="cls-2" cx="11.81" cy="12.98" rx="0.83" ry="0.83" transform="translate(-3.2 22.06) rotate(-78.88)"/><ellipse class="cls-2" cx="11.53" cy="23.03" rx="0.83" ry="0.83" transform="translate(-13.29 29.91) rotate(-78.9)"/><circle class="cls-2" cx="12.81" cy="16.54" r="0.83" transform="translate(-5.89 25.92) rotate(-78.9)"/><ellipse class="cls-2" cx="14.08" cy="10.05" rx="0.83" ry="0.83" transform="translate(1.5 21.92) rotate(-78.87)"/><ellipse class="cls-2" cx="13.08" cy="6.48" rx="0.83" ry="0.83" transform="translate(4.2 18.07) rotate(-78.91)"/></svg>