<svg id="Layer_1" data-name="Layer 1" xmlns="http://www.w3.org/2000/svg" viewBox="0 0 58.91 58.92"><defs><style>.cls-1{fill:#fff;}.cls-2{fill:#1a1a18;}</style></defs><title>design</title><path class="cls-1" d="M37.07,29.46,53.69,12.84s4.16-11.38,4-11.58-11.57,4-11.57,4L29.46,21.85,12.83,5.22S1.45,1.06,1.25,1.26s4,11.57,4,11.57L21.85,29.46,1.25,50.06a10.4,10.4,0,0,0,2.87,4.72,10.46,10.46,0,0,0,4.74,2.88l20.6-20.6,20.6,20.6a10.39,10.39,0,0,0,4.72-2.87,10.46,10.46,0,0,0,2.88-4.73Z"/><circle class="cls-2" cx="14.28" cy="48.28" r="0.75" transform="translate(-29.95 24.24) rotate(-45)"/><circle class="cls-2" cx="16.41" cy="46.16" r="0.75" transform="translate(-27.82 25.1) rotate(-44.97)"/><circle class="cls-2" cx="18.53" cy="44.03" r="0.75" transform="translate(-25.72 26.02) rotate(-45.03)"/><circle class="cls-2" cx="20.65" cy="41.91" r="0.75" transform="translate(-23.59 26.88) rotate(-45)"/><circle class="cls-2" cx="22.77" cy="39.79" r="0.75" transform="translate(-21.47 27.75) rotate(-45)"/><circle class="cls-2" cx="24.89" cy="37.67" r="0.75" transform="translate(-19.35 28.63) rotate(-45)"/><circle class="cls-2" cx="11.1" cy="47.22" r="0.75" transform="translate(-30.14 21.68) rotate(-45)"/><circle class="cls-2" cx="13.22" cy="45.09" r="0.75" transform="translate(-28.01 22.56) rotate(-45)"/><circle class="cls-2" cx="15.35" cy="42.97" r="0.75" transform="translate(-25.89 23.44) rotate(-45)"/><circle class="cls-2" cx="17.47" cy="40.85" r="0.75" transform="translate(-23.77 24.32) rotate(-45)"/><circle class="cls-2" cx="19.59" cy="38.73" r="0.75" transform="translate(-21.65 25.2) rotate(-45)"/><circle class="cls-2" cx="21.71" cy="36.61" r="0.75" transform="translate(-19.53 26.07) rotate(-45)"/><circle class="cls-2" cx="23.83" cy="34.49" r="0.75" transform="translate(-17.41 26.95) rotate(-45)"/><circle class="cls-2" cx="37.62" cy="24.94" r="0.75" transform="translate(-6.62 33.91) rotate(-45)"/><circle class="cls-2" cx="39.74" cy="22.82" r="0.75" transform="translate(-4.5 34.78) rotate(-45)"/><circle class="cls-2" cx="41.86" cy="20.7" r="0.75" transform="translate(-2.37 35.68) rotate(-45.02)"/><circle class="cls-2" cx="43.98" cy="18.58" r="0.75" transform="translate(-0.25 36.54) rotate(-45)"/><circle class="cls-2" cx="34.44" cy="23.88" r="0.75" transform="translate(-6.8 31.35) rotate(-45)"/><circle class="cls-2" cx="36.56" cy="21.76" r="0.75" transform="translate(-4.68 32.23) rotate(-45)"/><circle class="cls-2" cx="38.68" cy="19.64" r="0.75" transform="translate(-2.56 33.1) rotate(-45)"/><circle class="cls-2" cx="40.8" cy="17.52" r="0.75" transform="translate(-0.44 33.98) rotate(-45)"/><circle class="cls-2" cx="42.92" cy="15.4" r="0.75" transform="translate(1.68 34.86) rotate(-45)"/><circle class="cls-2" cx="46.1" cy="16.46" r="0.75" transform="translate(1.86 37.4) rotate(-44.97)"/><circle class="cls-2" cx="48.23" cy="14.34" r="0.75" transform="translate(3.99 38.3) rotate(-45)"/><circle class="cls-2" cx="45.04" cy="13.28" r="0.75" transform="translate(3.81 35.74) rotate(-45)"/><path class="cls-2" d="M55.63,55.71a11.71,11.71,0,0,0,3.23-5.3,1.25,1.25,0,0,0-.32-1.24L38.82,29.44,54.57,13.72l0-.06a1.22,1.22,0,0,0,.2-.32s0,0,0-.07C59.3,1.14,59.25,1.09,58.53.37A1.33,1.33,0,0,0,57.62,0c-.25,0-.91,0-12,4.06a1.39,1.39,0,0,0-.14.09,1.27,1.27,0,0,0-.27.17l0,0L29.47,20.1,13.72,4.34l0,0a1.22,1.22,0,0,0-.27-.17,1.34,1.34,0,0,0-.14-.09C2.2,0,1.53,0,1.28,0A1.33,1.33,0,0,0,.37.38c-.72.72-.76.76,3.69,12.88,0,0,0,.05.05.08a1.22,1.22,0,0,0,.2.31l0,.06L20.1,29.47.37,49.18a1.25,1.25,0,0,0-.32,1.24,11.56,11.56,0,0,0,3.16,5.22,11.69,11.69,0,0,0,5.3,3.23,1.23,1.23,0,0,0,.35,0,1.25,1.25,0,0,0,.88-.37L29.47,38.84l19.7,19.71a1.25,1.25,0,0,0,.88.37,1.23,1.23,0,0,0,.35,0A11.55,11.55,0,0,0,55.63,55.71ZM53.27,4l.06.09.19.24a3.32,3.32,0,0,0,.46.53,3.32,3.32,0,0,0,.74.57,1.67,1.67,0,0,1,.24.16h0c-.62,1.78-1.36,3.84-2,5.67a9.51,9.51,0,0,1-3-2.16l-.16-.16A9.09,9.09,0,0,1,47.68,6C49.49,5.32,51.5,4.6,53.27,4ZM45.63,7.45a11.31,11.31,0,0,0,2.45,3.31,11.77,11.77,0,0,0,3.4,2.52L37.05,27.68l-5.81-5.81Zm-32.35,0,38,38a9,9,0,0,1-.82,1.66L12.35,9A12.28,12.28,0,0,0,13.28,7.44ZM49.55,48.32c-.18.2-.35.39-.55.58l-.18.18a9.22,9.22,0,0,1-.69.65L10,11.58a10.71,10.71,0,0,0,.77-.75c.23-.21.44-.43.65-.66ZM4,5.64l.09-.05.24-.19a3.35,3.35,0,0,0,.53-.46,3.35,3.35,0,0,0,.57-.74A1.75,1.75,0,0,1,5.55,4h0c1.79.63,3.83,1.36,5.67,2A9.51,9.51,0,0,1,9.07,9l-.16.16A9.09,9.09,0,0,1,6,11.23C5.31,9.42,4.59,7.41,4,5.64Zm4.55,50.6A9.26,9.26,0,0,1,5,53.87,9.06,9.06,0,0,1,2.68,50.4l3-3a11.28,11.28,0,0,0,2.45,3.31,11.8,11.8,0,0,0,3.39,2.52Zm4.93-4.93A9.39,9.39,0,0,1,10,49l-.16-.16a9,9,0,0,1-2.24-3.36L21.86,31.24l5.84,5.84Zm32,0-38-38a12,12,0,0,0,1.34-.78L46.91,50.62A9,9,0,0,1,45.47,51.31Zm5.21-.55a11.81,11.81,0,0,0,2.52-3.4l3,3a9.26,9.26,0,0,1-2.37,3.55,9,9,0,0,1-3.47,2.29l-3-3A11.29,11.29,0,0,0,50.68,50.76Z"/></svg>