<svg id="Layer_1" data-name="Layer 1" xmlns="http://www.w3.org/2000/svg" viewBox="0 0 100 100"><defs><style>.cls-1{fill:#a6d5c2;}.cls-2{fill:#fff;}</style></defs><title>info-spotlight</title><path class="cls-1" d="M50,0a50,50,0,1,0,50,50A50,50,0,0,0,50,0Zm0,88A38,38,0,1,1,88,50,38,38,0,0,1,50,88Z"/><path class="cls-1" d="M50,0a50,50,0,1,0,50,50A50,50,0,0,0,50,0Zm0,88A38,38,0,1,1,88,50,38,38,0,0,1,50,88Z"/><path class="cls-2" d="M88,50A38,38,0,1,1,50,12,38,38,0,0,1,88,50Z"/><path d="M42.79,28.49a5.73,5.73,0,0,1,1.7-4.54q1.7-1.49,5.48-1.49T55.48,24a5.69,5.69,0,0,1,1.73,4.51q0,6-7.25,6T42.79,28.49Zm13.9,49.05H43.14V38.27H56.69Z"/></svg>