<svg id="Layer_1" data-name="Layer 1" xmlns="http://www.w3.org/2000/svg" viewBox="0 0 39.14 60.9"><defs><style>.cls-1{fill:#fff;}.cls-2{fill:#1a1a18;}</style></defs><title>interaction</title><path class="cls-1" d="M33.81,59.65c3-2.95,4.08-10.46,4.08-12.77V34.38a3,3,0,0,0-6,0V30.24a3,3,0,0,0-6,0V27.48a2.9,2.9,0,0,0-3-2.76,2.9,2.9,0,0,0-3,2.76v-11a2.9,2.9,0,0,0-3-2.76,2.9,2.9,0,0,0-3,2.76l0,23.55a3,3,0,0,0-3-2.85,3.07,3.07,0,0,0-3.15,3.29v5.42c0,5.52,3.84,11.62,7.29,13.8Z"/><circle class="cls-2" cx="26.56" cy="44.45" r="0.75"/><circle class="cls-2" cx="19.06" cy="41.45" r="0.75"/><circle class="cls-2" cx="25.06" cy="41.45" r="0.75"/><circle class="cls-2" cx="32.56" cy="56.33" r="0.75"/><circle class="cls-2" cx="31.06" cy="53.33" r="0.75"/><circle class="cls-2" cx="34.06" cy="53.33" r="0.75"/><circle class="cls-2" cx="29.56" cy="50.33" r="0.75"/><circle class="cls-2" cx="32.56" cy="50.33" r="0.75"/><circle class="cls-2" cx="34.06" cy="41.33" r="0.75"/><circle class="cls-2" cx="34.22" cy="35.33" r="0.75"/><circle class="cls-2" cx="35.56" cy="38.33" r="0.75"/><circle class="cls-2" cx="31.06" cy="47.33" r="0.75"/><circle class="cls-2" cx="34.06" cy="47.33" r="0.75"/><circle class="cls-2" cx="29.55" cy="44.33" r="0.75"/><circle class="cls-2" cx="23.55" cy="44.33" r="0.75"/><circle class="cls-2" cx="22.05" cy="41.33" r="0.75"/><circle class="cls-2" cx="28.05" cy="41.33" r="0.75"/><circle class="cls-2" cx="28.05" cy="47.33" r="0.75"/><circle class="cls-2" cx="31.06" cy="41.33" r="0.75"/><circle class="cls-2" cx="32.56" cy="44.33" r="0.75"/><circle class="cls-2" cx="35.56" cy="44.33" r="0.75"/><path class="cls-2" d="M34.87,30.37a4.48,4.48,0,0,0-1.77.36v-.49a4.15,4.15,0,0,0-4.27-4,4.48,4.48,0,0,0-1.87.4,4.22,4.22,0,0,0-4.17-3.16,4.46,4.46,0,0,0-1.77.36V20.3H31.94a2,2,0,0,0,0-4H21.85L29.12,9a2,2,0,0,0-2.83-2.83l-7,7a4.24,4.24,0,0,0-.52-.3V2a2,2,0,0,0-4,0V12.92a4.21,4.21,0,0,0-.51.3l-7-7A2,2,0,0,0,4.39,9l7.26,7.26H2a2,2,0,0,0,0,4H12.48v16a4.43,4.43,0,0,0-1.78-.35,4.33,4.33,0,0,0-4.4,4.54v5.42c0,5.91,4.07,12.45,7.87,14.86a1.25,1.25,0,0,0,.67.19h19a1.25,1.25,0,0,0,.87-.35c3.4-3.29,4.46-11.17,4.46-13.66V34.38A4.15,4.15,0,0,0,34.87,30.37Zm1.77,16.52c0,2.26-1,8.76-3.37,11.52H15.21A17.35,17.35,0,0,1,8.79,45.85V40.43a1.84,1.84,0,0,1,1.9-2c.38,0,1.54,0,1.79,1.78A1.25,1.25,0,0,0,15,40l0-23.55a1.66,1.66,0,0,1,1.77-1.51,1.66,1.66,0,0,1,1.77,1.51V35.85a1.25,1.25,0,0,0,2.5,0V27.48A1.66,1.66,0,0,1,22.79,26a1.66,1.66,0,0,1,1.77,1.51v9.75a1.25,1.25,0,0,0,2.5,0v-7a1.79,1.79,0,0,1,3.54,0v8.37a1.25,1.25,0,0,0,2.5,0V34.38a1.79,1.79,0,0,1,3.54,0Z"/></svg>