<svg id="Layer_1" data-name="Layer 1" xmlns="http://www.w3.org/2000/svg" viewBox="0 0 48.62 56.15"><defs><style>.cls-1{fill:#fff;}.cls-2{fill:#030304;}</style></defs><title>keuzevak</title><polygon class="cls-1" points="47.48 39.11 41.14 32.87 27.3 32.98 27.3 29.7 42.92 29.96 43.2 17.39 27.3 17.12 27.3 13.82 44.05 13.72 43.98 1.14 7.39 1.35 1.14 7.69 7.47 13.94 21.64 13.85 21.64 17.03 8.47 16.81 2.04 22.95 8.19 29.38 21.64 29.61 21.64 33.02 6.44 33.14 6.54 45.72 21.64 45.6 21.64 55.01 27.3 55.01 27.3 45.56 41.24 45.45 47.48 39.11"/><path class="cls-2" d="M48.28,38.3l-6.34-6.24a1.22,1.22,0,0,0-.81-.33l-12.7.1v-1l14.46.24h0A1.14,1.14,0,0,0,44.06,30l.28-12.58a1.14,1.14,0,0,0-1.12-1.17L28.44,16V15l15.63-.09a1.14,1.14,0,0,0,1.13-1.15L45.12,1.13A1.14,1.14,0,0,0,44,0h0L7.38.21a1.14,1.14,0,0,0-.8.34L.33,6.88a1.14,1.14,0,0,0,0,1.61l6.33,6.25a1.14,1.14,0,0,0,.8.33h0l13-.08v.87l-12-.2a1,1,0,0,0-.81.32L1.25,22.13a1.14,1.14,0,0,0,0,1.61l6.15,6.43a1.14,1.14,0,0,0,.8.35l12.32.21v1.16L6.43,32A1.14,1.14,0,0,0,5.3,33.15l.1,12.58a1.14,1.14,0,0,0,1.14,1.13h0l13.95-.11V55a1.14,1.14,0,0,0,1.14,1.14H27.3A1.14,1.14,0,0,0,28.44,55V46.69l12.81-.1a1.14,1.14,0,0,0,.8-.34l6.24-6.34a1.14,1.14,0,0,0,0-1.61ZM2.75,7.68,7.87,2.49l35-.21.06,10.3-35,.2Zm20,7.31,3.38,0v1l-3.38-.06ZM3.66,23l5.27-5L42,18.51,41.8,28.8,8.68,28.25Zm19.12,7.78,3.38.06v1l-3.38,0Zm3.38,23.1H22.78V46.73l3.38,0Zm14.6-9.55-33.09.25-.08-10.3L40.68,34l5.19,5.11Z"/><path class="cls-2" d="M18,19.48l-.46.36a5.81,5.81,0,0,1,.79.92l.48-.38A4.3,4.3,0,0,0,18,19.48Z"/><polygon class="cls-2" points="12.73 21.79 16.62 21.91 16.54 24.43 12.59 24.31 12.56 25.33 16.51 25.45 16.5 25.8 17.63 25.84 17.77 20.92 12.76 20.77 12.73 21.79"/><path class="cls-2" d="M17.57,20.47a6.26,6.26,0,0,0-.82-.92l-.46.36a6.16,6.16,0,0,1,.79.94Z"/><path class="cls-2" d="M19.17,23.6a.37.37,0,0,0,.26-.13l5.6.17,0-1.08-5.91-.18Z"/><path class="cls-2" d="M28.83,21.07a11.25,11.25,0,0,0-1.77-.75l-.51.82a9.79,9.79,0,0,1,1.72.82Z"/><path class="cls-2" d="M27.88,22.74A9.45,9.45,0,0,0,26.13,22l-.49.86a10.15,10.15,0,0,1,1.75.77Z"/><path class="cls-2" d="M30.91,21.56a6.92,6.92,0,0,1-4.79,3.69l.75,1.09a.19.19,0,0,0,.13-.2,7.91,7.91,0,0,0,4.83-3.84A9.4,9.4,0,0,1,30.91,21.56Z"/><path class="cls-2" d="M35.65,22.68a.2.2,0,0,0,.13-.11l-.67-.32-.16,0-2.73-.08,0,.84,2.45.07c-.09.59-.23,1.54-.35,2.15l-2.68-.08,0,.84,4.84.15,0-.83-1.28,0C35.3,24.65,35.54,23.32,35.65,22.68Z"/><path class="cls-2" d="M13.71,4.57a3.15,3.15,0,0,0-3.32,3.1c0,1.25.55,1.93,1.4,1.94C13,9.63,13.73,8.49,14.08,6a.25.25,0,0,0,.23-.12L13.25,5.6a2.79,2.79,0,0,1,.43,0A1.74,1.74,0,0,1,15.6,7.36c0,1-.59,1.78-2.2,2.07a4.79,4.79,0,0,1,.68.92c1.83-.46,2.65-1.34,2.67-3S15.7,4.6,13.71,4.57Zm-1.87,4c-.3,0-.4-.4-.39-.91a2.1,2.1,0,0,1,1.52-2C12.86,7.18,12.45,8.56,11.84,8.55Z"/><path class="cls-2" d="M22.91,9l-.79.51.37.29a2.4,2.4,0,0,1-.81-.31c0,.43-.09.51-.28.51h-.68c-.25,0-.3,0-.29-.21V9.45h.06a4.36,4.36,0,0,1,.62.41l.65-.64A3.23,3.23,0,0,0,21.38,9l1.71,0,0-2.22L18.77,6.7l0,2.22,1.43,0-.22.22.24.12-.75-.05v.54c0,.72.21,1,1.14,1h.93c.66,0,.92-.19,1-.94a5.06,5.06,0,0,1,.86.89l.84-.56A6,6,0,0,0,22.91,9ZM19.73,7.35l2.35,0v.18l-2.35,0Zm0,.95V8.12l2.35,0v.18Z"/><path class="cls-2" d="M17.54,10.06l.79.57a2.5,2.5,0,0,0,1-1.26L18.52,9A2.18,2.18,0,0,1,17.54,10.06Z"/><path class="cls-2" d="M24.2,5.85l-1.68,0c.09-.15.17-.29.23-.42a.27.27,0,0,0,.16,0h.74V4.61l-2.19,0v-.3c.14,0,.21-.07.21-.15l-1.25-.08v.52l-2.19,0V5.3l1.13,0-.18,0a3.7,3.7,0,0,1,.13.42l-1.62,0v.77l6.5.09Zm-2.65,0-1.23,0a2.9,2.9,0,0,0-.14-.47l1.52,0A4.72,4.72,0,0,1,21.54,5.81Z"/><path class="cls-2" d="M30.54,8.05h1.08v-1l-1.48,0V6.28l1.32,0v-1l-1.32,0V4.45c.15,0,.21-.07.21-.15l-1.25-.08,0,1.07-1.24,0v1l1.24,0V7L27.74,7V8h1a4.78,4.78,0,0,1-1.94,1.74,4.78,4.78,0,0,1,.7.85,5.17,5.17,0,0,0,1.58-1.43l0,1.72,1,0,0-1.81a5.24,5.24,0,0,0,1,1.47,3.71,3.71,0,0,1,.74-.8A4.89,4.89,0,0,1,30.54,8.05Z"/><path class="cls-2" d="M27.67,4.85l-2.37,0-.06,4.56h1V8.83l1.41,0Zm-1,3h-.43l0-2.09h.42Z"/><path class="cls-2" d="M35.08,8.52c0-.76,1-1.64,1.6-2.09A2.1,2.1,0,0,1,38.26,6V4.82l-5,.23h-.77l.09,1.23c.07,0,.17-.06.19-.12.52-.05,1.94-.15,2.87-.22a3.82,3.82,0,0,0-1.69,2.56c0,1.2.79,2.11,2.8,2.36l.55-1.07C35.78,9.65,35.07,9.24,35.08,8.52Z"/><path class="cls-2" d="M38.09,6.32l-.47.36a5.11,5.11,0,0,1,.78,1l.48-.37A3.65,3.65,0,0,0,38.09,6.32Z"/><path class="cls-2" d="M37.21,6.95l-.47.36a5,5,0,0,1,.77,1L38,7.91A4.38,4.38,0,0,0,37.21,6.95Z"/><path class="cls-2" d="M14.5,37.79h0a6.34,6.34,0,0,0-.74.52l.95.45A5,5,0,0,1,17,37.71l-.07-1.11a12.58,12.58,0,0,1-1.44.16c-.47,0-1.45,0-2.15,0h-.55c0,.23,0,.79,0,1A13,13,0,0,0,14.5,37.79Z"/><path class="cls-2" d="M15.11,41.14c-.77,0-1.62,0-1.62-.77a1.29,1.29,0,0,1,.47-.86l-.93-.4a2.16,2.16,0,0,0-.64,1.47,1.53,1.53,0,0,0,1.34,1.5,9.21,9.21,0,0,0,1.52.09,16.42,16.42,0,0,0,2.1-.12l-.09-1.11A12.3,12.3,0,0,1,15.11,41.14Z"/><path class="cls-2" d="M22,40.38a1.31,1.31,0,0,1,.49-.94l-1-.33a2.26,2.26,0,0,0-.58,1.43c0,1.36,1.68,1.36,2.6,1.36l.81,0,0-1.08a8.08,8.08,0,0,1-1,.06C22.28,40.87,22,40.77,22,40.38Z"/><path class="cls-2" d="M19.55,40.57a3.51,3.51,0,0,1,0-.5,15.83,15.83,0,0,1,.38-3.39c.13,0,.2-.07.2-.15l-1.37-.18a25.69,25.69,0,0,0-.31,3.44,8.73,8.73,0,0,0,.33,2.58l1.07-.16a1.16,1.16,0,0,1,0-.26,1.2,1.2,0,0,1,.06-.34,7.19,7.19,0,0,1,.58-1.12L20,39.68C19.88,39.89,19.61,40.43,19.55,40.57Z"/><path class="cls-2" d="M24.06,38,24,36.92a25.61,25.61,0,0,1-3,.26l0,1A26.76,26.76,0,0,0,24.06,38Z"/><path class="cls-2" d="M29,38.86a3.25,3.25,0,0,0-1.64.5,6.34,6.34,0,0,0,.22-1.11,16.66,16.66,0,0,0,2.68-.36l-.16-1.07a13.88,13.88,0,0,1-2.41.4c0-.26,0-.56.06-.83a.23.23,0,0,0,.21-.18l-1.33-.12c0,.38,0,.81,0,1.16-.5,0-1.2,0-1.54,0v1h1.46a4.46,4.46,0,0,1-.57,2.08l1,.45a2.26,2.26,0,0,1,1.81-1c.54,0,.79.21.79.66,0,.72-1,1-3,1.08a5.09,5.09,0,0,1,.32,1c2.48,0,3.8-.6,3.8-2.08A1.51,1.51,0,0,0,29,38.86Z"/><path class="cls-2" d="M36.54,38.71a7.37,7.37,0,0,0,1.2-.17l-.08-1a9.83,9.83,0,0,1-1.15.23V36.49a.19.19,0,0,0,.18-.16l-1.32,0c0,.53,0,1,.06,1.51l-1.16,0H34v1h1.49c0,.43,0,.91.08,1.25h-.3a1.29,1.29,0,0,0-1.42,1.2c0,.67.52,1.19,1.41,1.19a1.25,1.25,0,0,0,1.42-.94,3.48,3.48,0,0,1,.67.61l.55-1a5.14,5.14,0,0,0-1.26-.77C36.59,39.83,36.56,39.27,36.54,38.71Zm-1.31,2.83c-.29,0-.52-.1-.52-.31s.24-.33.54-.33a1.15,1.15,0,0,1,.39.07,1.57,1.57,0,0,1,0,.17A.4.4,0,0,1,35.23,41.53Z"/><path class="cls-2" d="M32.78,40.55c0-.06,0-.16,0-.28a11.2,11.2,0,0,1,.45-3.56c.08,0,.18-.07.2-.15l-1.31-.24a17.49,17.49,0,0,0-.35,3.16,11.72,11.72,0,0,0,.28,2.8l1,0A2.4,2.4,0,0,1,33,42a1.15,1.15,0,0,1,.08-.42,11.47,11.47,0,0,1,.55-1.23l-.53-.72C33,39.82,32.86,40.36,32.78,40.55Z"/></svg>