<svg id="Layer_1" data-name="Layer 1" xmlns="http://www.w3.org/2000/svg" viewBox="0 0 73.35 45.25"><defs><style>.cls-1{fill:#fff;}.cls-2{fill:#1a1a18;}</style></defs><title>project</title><polygon class="cls-1" points="65.08 37.63 65.08 1.25 8.25 1.25 8.25 37.63 1.25 44 72.08 44 65.08 37.63"/><path class="cls-2" d="M72.8,43l-6.47-5.89V1.25A1.25,1.25,0,0,0,65.08,0H8.25A1.25,1.25,0,0,0,7,1.25V37.07l-6.59,6a1.25,1.25,0,0,0,.84,2.17H72.1A1.25,1.25,0,0,0,72.8,43ZM9.5,2.5H63.83V36.38H9.5Zm-5,40.25,4.26-3.87H64.6l4.26,3.88Z"/><path class="cls-2" d="M61.08,4.53H12.42a.5.5,0,0,0-.5.5V33.82a.5.5,0,0,0,.5.5H61.08a.5.5,0,0,0,.5-.5V5A.5.5,0,0,0,61.08,4.53ZM56.14,21.88a.75.75,0,0,1-.59.61l-4.2.83L53.84,27a1.25,1.25,0,1,1-2.06,1.41l-2.45-3.58-2.18,3.73a.75.75,0,0,1-.65.37h-.13a.75.75,0,0,1-.61-.6l-2.4-13.21a.75.75,0,0,1,1.13-.78l11.31,6.83A.75.75,0,0,1,56.14,21.88Z"/><path class="cls-2" d="M46.87,26l2-3.48a.75.75,0,0,1,.5-.36l3.95-.78-8.23-5Z"/></svg>