<svg id="Layer_1" data-name="Layer 1" xmlns="http://www.w3.org/2000/svg" viewBox="0 0 37.89 59.99"><defs><style>.cls-1{fill:#fff;}.cls-2{fill:#030304;}</style></defs><title>Propedeuse</title><path class="cls-1" d="M31.85,1.52H1.14V53.6H5.62l-.08,5.62,1.61-1,1.42,1,.17-5.62H31.85a4.9,4.9,0,0,0,4.89-4.9V6.41A4.9,4.9,0,0,0,31.85,1.52Z"/><path class="cls-2" d="M31.85.38H30.47A.38.38,0,0,0,30.09,0h-3.8a.38.38,0,0,0-.38.38H1.14A1.14,1.14,0,0,0,0,1.52V53.6a1.14,1.14,0,0,0,1.14,1.14H4.85l-.07,4.47A.76.76,0,0,0,6,59.86l1.17-.76,1,.74a.76.76,0,0,0,1.21-.59l.13-4.51H25.92v.13a.38.38,0,0,0,.38.38h3.8a.38.38,0,0,0,.38-.38v-.13h1.38a6,6,0,0,0,6-6V6.41A6,6,0,0,0,31.85.38Zm-24,40.41a.83.83,0,1,0-1.65,0H2.28V22.39h.65a.84.84,0,0,0,0,.1.83.83,0,1,0,1.65,0,.84.84,0,0,0,0-.1H25.92v18.4Zm22.6-18.4h5.14v18.4H30.47ZM31.85,2.65a3.76,3.76,0,0,1,3.76,3.76V20.88H30.47V2.65Zm-5.94,0V20.88H2.28V2.65ZM7.86,57.76l-.26-.19a.76.76,0,0,0-.86,0l-.42.27,0-3.07H7.95ZM2.28,52.47V42.31H25.92V52.47Zm29.58,0H30.47V42.31h5.14v6.4A3.76,3.76,0,0,1,31.85,52.47Z"/><ellipse class="cls-2" cx="3.73" cy="25.82" rx="0.83" ry="0.83"/><ellipse class="cls-2" cx="3.73" cy="29.15" rx="0.83" ry="0.83"/><ellipse class="cls-2" cx="7.04" cy="24.16" rx="0.83" ry="0.83"/><ellipse class="cls-2" cx="7.04" cy="27.48" rx="0.83" ry="0.83"/><ellipse class="cls-2" cx="7.04" cy="30.81" rx="0.83" ry="0.83"/><ellipse class="cls-2" cx="3.73" cy="32.47" rx="0.83" ry="0.83"/><ellipse class="cls-2" cx="3.73" cy="35.8" rx="0.83" ry="0.83"/><ellipse class="cls-2" cx="3.73" cy="39.13" rx="0.83" ry="0.83"/><ellipse class="cls-2" cx="7.04" cy="34.14" rx="0.83" ry="0.83"/><ellipse class="cls-2" cx="7.04" cy="37.47" rx="0.83" ry="0.83"/></svg>