<svg id="Layer_1" data-name="Layer 1" xmlns="http://www.w3.org/2000/svg" viewBox="0 0 80.74 54.19"><defs><style>.cls-1{fill:#fff;}.cls-2{fill:#030304;}</style></defs><title>schrijven</title><rect class="cls-1" x="1.14" y="19.52" width="78.46" height="33.53"/><path class="cls-2" d="M79.6,18.38H38.34a5.81,5.81,0,0,1,.92-.65,9.06,9.06,0,0,1,1-.46c1.39-.57,3.48-1.43,4-3.66.71-3.34-1.92-5.1-3.5-6.15-.26-.18-.52-.35-.75-.52-.92-.68-.73-1.21-.65-1.44a3.06,3.06,0,0,1,2.84-1.71,1.9,1.9,0,0,0,.2-3.8,6.79,6.79,0,0,0-6.61,4.21,4.91,4.91,0,0,0,2,5.78c.28.21.59.42.91.63,1.66,1.11,2,1.54,1.89,2.19-.06.27-1.2.74-1.68.94a11.52,11.52,0,0,0-1.51.71,6.38,6.38,0,0,0-3.25,3.92H1.14A1.14,1.14,0,0,0,0,19.52V53.05a1.14,1.14,0,0,0,1.14,1.14H79.6a1.14,1.14,0,0,0,1.14-1.14V19.52A1.14,1.14,0,0,0,79.6,18.38ZM78.46,51.91H2.28V20.66H78.46Z"/><path class="cls-2" d="M35.74,22.31H4.69a.76.76,0,0,0-.76.76V48.93a.76.76,0,0,0,.76.76H75.48a.76.76,0,0,0,.76-.76V42.47a.78.78,0,0,0,0-.13.78.78,0,0,0,0-.13V29.85a.73.73,0,0,0,0-.16.71.71,0,0,0,0-.16V23.07a.76.76,0,0,0-.76-.76H35.74ZM51,30.3h.83v4.94H45.69V30.3Zm7.61,0h.83v4.94H53.3V30.3Zm8.43,0v4.94H60.91V30.3Zm7.73,0V41.71H71.8V36a.76.76,0,0,0-.76-.76H68.51V30.3ZM66.61,41.71H64.2V36.76h6.08v4.94Zm-8.55,0H56.59V36.76h6.08v4.94Zm-9.06,0V36.76h6.08v4.94Zm-2,0H41.38V36.76h6.08v4.94Zm-13.25,0V36.76h6.08v4.94Zm-7.6,0V36.76h6.08v4.94Zm-7.61,0V36.76h6.08v4.94Zm-4.12,0h-9V36.76H17v4.94ZM12.93,30.3h.83v4.94H5.45V30.3Zm7.61,0h.82v4.94H15.27V30.3Zm7.61,0H29v4.94H22.88V30.3Zm7.61,0h.82v4.94H30.48V30.3Zm8.43,4.94H38.09V30.3h6.08Zm-1.58-6.46H36.5V23.83h6.08Zm-7.61,0H28.9V23.83H35Zm-7.61,0H21.29V23.83h6.08Zm-7.61,0H13.69V23.83h6.08ZM5.45,23.83h6.72v4.94H5.45Zm0,19.39h8.24v4.94H5.45Zm9.76,0H46.27v4.94H15.21Zm32.58,0h9.5v4.94h-9.5Zm11,0h7v4.94h-7Zm15.91,4.94H67.37V43.23h7.35Zm0-19.39H59.32V23.83h15.4Zm-16.92,0H51.71V23.83H57.8Zm-7.61,0H44.11V23.83h6.08Z"/></svg>