<svg id="Layer_1" data-name="Layer 1" xmlns="http://www.w3.org/2000/svg" viewBox="0 0 56.27 61.2"><defs><style>.cls-1{fill:#fff;}.cls-2{fill:#1a1a18;}</style></defs><title>stage</title><path class="cls-1" d="M48.73,32.17,55,27.47l-6.29-4.71,3.63-7-7.71-1.5.25-7.85-7.6,2L34.11,1.25l-6,5.09-6-5.09L19,8.43l-7.6-2,.25,7.85L3.91,15.8l3.63,7L1.25,27.47l6.29,4.71-3.63,7,7.71,1.5-.25,7.85L21,46a72.14,72.14,0,0,1,.08,8.52s6.53,5.06,7.09,5.44c.56-.37,7.09-5.44,7.09-5.44a72.11,72.11,0,0,1,.08-8.5l9.55,2.48-.25-7.85,7.71-1.5Z"/><circle class="cls-2" cx="17.42" cy="31.13" r="0.75"/><circle class="cls-2" cx="20.42" cy="37.13" r="0.75"/><circle class="cls-2" cx="18.92" cy="34.13" r="0.75"/><circle class="cls-2" cx="21.92" cy="40.13" r="0.75"/><circle class="cls-2" cx="18.92" cy="28.13" r="0.75"/><circle class="cls-2" cx="15.92" cy="28.13" r="0.75"/><circle class="cls-2" cx="17.42" cy="25.13" r="0.75"/><circle class="cls-2" cx="15.92" cy="22.13" r="0.75"/><circle class="cls-2" cx="18.92" cy="22.13" r="0.75"/><circle class="cls-2" cx="17.42" cy="19.13" r="0.75"/><circle class="cls-2" cx="20.42" cy="19.13" r="0.75"/><circle class="cls-2" cx="21.92" cy="16.13" r="0.75"/><circle class="cls-2" cx="26.42" cy="13.13" r="0.75"/><circle class="cls-2" cx="24.92" cy="16.13" r="0.75"/><path class="cls-2" d="M55.76,26.46,50.33,22.4l3.14-6a1.25,1.25,0,0,0-.87-1.8l-6.67-1.3.21-6.79a1.25,1.25,0,0,0-1.56-1.25L38,7,35.26.74a1.25,1.25,0,0,0-2-.45L28.13,4.7,23,.3a1.25,1.25,0,0,0-2,.45L18.26,7,11.68,5.24a1.25,1.25,0,0,0-1.56,1.25l.21,6.79-6.66,1.3a1.25,1.25,0,0,0-.87,1.8l3.14,6L.5,26.46a1.25,1.25,0,0,0,0,2l5.43,4.07-3.14,6a1.25,1.25,0,0,0,.87,1.8l6.66,1.3-.21,6.79a1.25,1.25,0,0,0,1.56,1.25l8.18-2.12c.12,2.44,0,5.49,0,6.88a1.25,1.25,0,0,0,.48,1c1.1.85,6.6,5.11,7.17,5.49a1.25,1.25,0,0,0,1.39,0c.57-.38,6.07-4.64,7.17-5.49a1.25,1.25,0,0,0,.48-1c-.07-1.38-.15-4.42,0-6.86l8.1,2.1a1.27,1.27,0,0,0,.31,0h0a1.25,1.25,0,0,0,1.25-1.25,1.23,1.23,0,0,0,0-.26l-.21-6.56,6.66-1.3a1.25,1.25,0,0,0,.87-1.8l-3.14-6,5.44-4.07a1.25,1.25,0,0,0,0-2ZM28.17,58.39l-2.62-2h5.24Zm-5.82-4.51c0-.35,0-.81,0-1.34H33.94c0,.53,0,1,0,1.34Zm5.86-22.47a11.4,11.4,0,0,0,2.27,1.13c.38.14.75.26,1.08.35-.16.9-.28,1.85-.39,2.77-.05.43-.11.85-.16,1.24-.33,2.38-1,7.09-1.34,9.26H26.75c-.32-2.17-1-6.88-1.34-9.26-.05-.39-.11-.8-.16-1.23-.12-.92-.24-1.88-.39-2.78.34-.09.7-.21,1.09-.35A11.4,11.4,0,0,0,28.22,31.41Zm-1.4-4.93a1.43,1.43,0,0,1,2.81,0,3.48,3.48,0,0,1-1.4,3A3.48,3.48,0,0,1,26.81,26.48Zm7.12,22.19c0,.46,0,.92,0,1.38H22.42c0-.45,0-.91,0-1.37Zm.5-4.7a12,12,0,0,0-.37,2.2H31.2c.33-2.26,1-6.75,1.31-9.05.05-.4.11-.82.16-1.26.1-.75.22-1.74.39-2.7a3.5,3.5,0,0,0,2.9-.9,2.49,2.49,0,0,0,.49-2.7,2.06,2.06,0,0,0-1.9-1.3c-1.42,0-2.18,1.35-2.66,3.17q-.42-.12-.87-.28a10.33,10.33,0,0,1-1.55-.73,4.8,4.8,0,0,0,1.63-4.2,2.93,2.93,0,0,0-5.76,0A4.8,4.8,0,0,0,27,30.42a10.28,10.28,0,0,1-1.55.73c-.3.11-.59.21-.87.29-.47-1.82-1.23-3.17-2.66-3.17a2.06,2.06,0,0,0-1.9,1.3,2.49,2.49,0,0,0,.49,2.7,3.43,3.43,0,0,0,2.9.9c.17,1,.29,2,.39,2.71.05.43.11.85.16,1.25.32,2.31,1,6.8,1.31,9.05h-3A12,12,0,0,0,21.9,44c-.5-1.68-2.28-4.22-4.15-6.9-1.17-1.68-2.28-3.26-2.91-4.42a13.17,13.17,0,0,1-1.45-6.38,14.78,14.78,0,0,1,29.56,0,13.18,13.18,0,0,1-1.44,6.38c-.63,1.16-1.74,2.74-2.91,4.42C36.72,39.74,34.95,42.28,34.44,44ZM33.38,31.67c.29-1.09.66-1.91,1.17-1.91a.58.58,0,0,1,.52.39,1,1,0,0,1-.19,1.07A1.94,1.94,0,0,1,33.38,31.67Zm-10.32,0a1.94,1.94,0,0,1-1.5-.45,1,1,0,0,1-.19-1.07.57.57,0,0,1,.52-.39C22.39,29.76,22.77,30.58,23.06,31.67ZM48,31.17a1.25,1.25,0,0,0-.36,1.58l2.85,5.48-6.06,1.18a1.25,1.25,0,0,0-1,1.27l.19,6.18-6.86-1.78c0-.15.06-.28.1-.4.39-1.3,2.21-3.9,3.81-6.19,1.21-1.73,2.36-3.37,3.06-4.65a15.64,15.64,0,0,0,1.75-7.58,17.28,17.28,0,0,0-34.56,0,15.63,15.63,0,0,0,1.75,7.58c.7,1.28,1.84,2.92,3.06,4.66,1.6,2.29,3.42,4.89,3.8,6.19,0,.11.06.24.09.38h0l-6.92,1.8.19-6.18a1.25,1.25,0,0,0-1-1.27L5.79,38.23l2.85-5.48a1.25,1.25,0,0,0-.36-1.58l-4.95-3.7,4.95-3.7a1.25,1.25,0,0,0,.36-1.58L5.79,16.71l6.07-1.18a1.25,1.25,0,0,0,1-1.27l-.19-6.18,6,1.56a1.25,1.25,0,0,0,1.46-.7l2.5-5.65,4.71,4a1.25,1.25,0,0,0,1.62,0l4.71-4,2.51,5.65a1.25,1.25,0,0,0,1.46.7l6-1.56-.19,6.18a1.25,1.25,0,0,0,1,1.27l6.07,1.18-2.86,5.48A1.25,1.25,0,0,0,48,23.76l4.95,3.7Z"/></svg>