<svg id="Layer_1" data-name="Layer 1" xmlns="http://www.w3.org/2000/svg" viewBox="0 0 68.91 36.89"><defs><style>.cls-1{fill:#020204;}.cls-2{fill:#fff;}</style></defs><title>technisch</title><path class="cls-1" d="M64.73,0H4.18A4.21,4.21,0,0,0,0,4.23V27.58a4.2,4.2,0,0,0,4.18,4.22h6.71l2.83,4.5a1.25,1.25,0,0,0,1.06.58h0a1.25,1.25,0,0,0,1.06-.6l2.71-4.48H64.73a4.2,4.2,0,0,0,4.18-4.22V4.23A4.21,4.21,0,0,0,64.73,0ZM19.53,22.28a.5.5,0,0,1,0,.68l-.93,1.15a.5.5,0,0,1-.35.18h0a.5.5,0,0,1-.34-.13l-8.69-8a.5.5,0,0,1,0-.74l8.71-8a.5.5,0,0,1,.38-.13.5.5,0,0,1,.35.18L19.6,8.7a.5.5,0,0,1-.05.68l-7,6.44Zm12.89,1.54a.5.5,0,0,1-.5.5H30.26a.5.5,0,0,1-.5-.5V16.88c0-.81,0-3.26-1-3.27a3.12,3.12,0,0,0-2.41,1.86,7.91,7.91,0,0,0-.55,3.64v4.69a.5.5,0,0,1-.5.5H23.64a.5.5,0,0,1-.5-.5l0-16.43a.5.5,0,0,1,.5-.5h1.66a.5.5,0,0,1,.5.5v5a4.73,4.73,0,0,1,3.06-1.18,2.93,2.93,0,0,1,2.45,1c.75.91,1.11,2.48,1.1,4.78Zm12.8,0a.5.5,0,0,1-.5.5H37.22a.5.5,0,0,1-.5-.5v-1.4a.5.5,0,0,1,.5-.5h2.49l0-12-2.48.75a.5.5,0,0,1-.64-.48V8.9A.5.5,0,0,1,37,8.43l4.78-1.5a.49.49,0,0,1,.45.07.5.5,0,0,1,.2.4l0,14.53h2.36a.5.5,0,0,1,.5.5ZM59.4,16.26l-8.71,8a.5.5,0,0,1-.34.13h0a.49.49,0,0,1-.35-.18L49,23a.5.5,0,0,1,0-.68l7-6.44-7-6.46a.5.5,0,0,1,0-.68L50,7.59a.5.5,0,0,1,.73-.05l8.69,8a.5.5,0,0,1,0,.74Z"/><path class="cls-2" d="M19.6,8.7l-.93-1.15a.5.5,0,0,0-.35-.18.5.5,0,0,0-.37.13l-8.71,8a.5.5,0,0,0,0,.74l8.69,8a.5.5,0,0,0,.34.13h0a.5.5,0,0,0,.35-.18L19.58,23a.5.5,0,0,0,0-.68l-7-6.46,7-6.44A.5.5,0,0,0,19.6,8.7Z"/><path class="cls-2" d="M28.88,11.22a4.73,4.73,0,0,0-3.06,1.18v-5a.5.5,0,0,0-.5-.5H23.67a.5.5,0,0,0-.5.5l0,16.43a.5.5,0,0,0,.5.5H25.3a.5.5,0,0,0,.5-.5V19.12a7.91,7.91,0,0,1,.55-3.64,3.12,3.12,0,0,1,2.41-1.86c1,0,1,2.45,1,3.27v6.93a.5.5,0,0,0,.5.5h1.66a.5.5,0,0,0,.5-.5V17c0-2.3-.36-3.87-1.1-4.78A2.93,2.93,0,0,0,28.88,11.22Z"/><path class="cls-2" d="M44.73,21.94H42.37l0-14.53a.5.5,0,0,0-.2-.4.49.49,0,0,0-.45-.07L37,8.43a.5.5,0,0,0-.35.48v1.26a.5.5,0,0,0,.64.48l2.48-.75,0,12H37.22a.5.5,0,0,0-.5.5v1.4a.5.5,0,0,0,.5.5h7.51a.5.5,0,0,0,.5-.5v-1.4A.5.5,0,0,0,44.73,21.94Z"/><path class="cls-2" d="M59.4,15.52l-8.69-8a.5.5,0,0,0-.73.05l-.93,1.15a.5.5,0,0,0,0,.68l7,6.46-7,6.44A.5.5,0,0,0,49,23L50,24.16a.49.49,0,0,0,.35.18h0a.5.5,0,0,0,.34-.13l8.71-8a.5.5,0,0,0,0-.74Z"/></svg>