<svg id="Layer_1" data-name="Layer 1" xmlns="http://www.w3.org/2000/svg" viewBox="0 0 29.32 48.31"><defs><style>.cls-1{fill:#fff;}.cls-2{fill:#1a1a18;}</style></defs><title>V1</title><path class="cls-1" d="M28.07,13.14h-2V3.67a2.67,2.67,0,0,0-2.86-2.42,2.67,2.67,0,0,0-2.86,2.42v9.47H8.95V3.67A2.67,2.67,0,0,0,6.09,1.25,2.67,2.67,0,0,0,3.24,3.67v9.47h-2V26h0c0,.2,0,.39,0,.59A13.4,13.4,0,0,0,9.82,39v8h9.64v-8a13.4,13.4,0,0,0,8.6-12.51c0-.2,0-.39,0-.59h0Z"/><circle class="cls-2" cx="3.82" cy="25.19" r="0.75"/><circle class="cls-2" cx="6.82" cy="25.19" r="0.75"/><circle class="cls-2" cx="9.82" cy="25.19" r="0.75"/><circle class="cls-2" cx="5.32" cy="28.19" r="0.75"/><circle class="cls-2" cx="8.32" cy="28.19" r="0.75"/><circle class="cls-2" cx="3.82" cy="19.19" r="0.75"/><circle class="cls-2" cx="6.82" cy="19.19" r="0.75"/><circle class="cls-2" cx="9.82" cy="19.19" r="0.75"/><circle class="cls-2" cx="12.82" cy="19.19" r="0.75"/><circle class="cls-2" cx="5.32" cy="22.19" r="0.75"/><circle class="cls-2" cx="8.32" cy="22.19" r="0.75"/><circle class="cls-2" cx="11.32" cy="22.19" r="0.75"/><circle class="cls-2" cx="15.82" cy="19.19" r="0.75"/><circle class="cls-2" cx="11.32" cy="16.19" r="0.75"/><circle class="cls-2" cx="14.32" cy="16.19" r="0.75"/><circle class="cls-2" cx="5.32" cy="16.19" r="0.75"/><circle class="cls-2" cx="8.32" cy="16.19" r="0.75"/><path class="cls-2" d="M29.32,13.14a1.25,1.25,0,0,0-1.25-1.25h-.7V3.67A3.91,3.91,0,0,0,23.26,0a3.91,3.91,0,0,0-4.11,3.67v8.22h-9V3.67A3.91,3.91,0,0,0,6.09,0,3.91,3.91,0,0,0,2,3.67v8.22H1.25A1.25,1.25,0,0,0,0,13.14V26a1.33,1.33,0,0,0,0,.14c0,.15,0,.3,0,.45A14.67,14.67,0,0,0,8.57,39.87v7.19a1.25,1.25,0,0,0,1.25,1.25h9.64a1.25,1.25,0,0,0,1.25-1.25V39.89a14.67,14.67,0,0,0,8.6-13.34c0-.15,0-.3,0-.45a1.32,1.32,0,0,0,0-.14ZM21.66,3.67c0-.64.74-1.17,1.61-1.17s1.61.54,1.61,1.17v8.22H21.66Zm-17.17,0c0-.64.74-1.17,1.61-1.17S7.7,3,7.7,3.67v8.22H4.49ZM18.22,45.81H11.07V40.75a14.16,14.16,0,0,0,7.14,0Zm8.6-20a1.25,1.25,0,0,0,0,.23c0,.18,0,.36,0,.54a12.16,12.16,0,1,1-24.32,0c0-.18,0-.36,0-.53a1.23,1.23,0,0,0,0-.24V14.39H26.82Z"/></svg>