<svg id="Layer_1" data-name="Layer 1" xmlns="http://www.w3.org/2000/svg" viewBox="0 0 34.54 47.43"><defs><style>.cls-1{fill:#fff;}.cls-2{fill:#1a1a18;}</style></defs><title>V2</title><path class="cls-1" d="M29.88,6.3c-2.29,0-3.53,1.82-3.55,4.13v8.28c-.22-2-1.33-3.46-3.36-3.46s-3.3,1.53-3.51,3.56v-.36c0-2.3-1.12-4.2-3.41-4.2S12.67,15.88,12.52,18l0-11.56c0-3.3-1.12-5.2-3.41-5.2S5.59,3.07,5.57,5.38L5.44,17.76a3.69,3.69,0,0,0-4.16,4c0,1.47,0,8.55,0,10.7.11,7.46,7.56,13.7,7.56,13.7H26.77s6.5-4.2,6.5-11V11.5C33.28,8.2,32.16,6.3,29.88,6.3Z"/><path class="cls-2" d="M32.89,6.23a4.08,4.08,0,0,0-3-1.18c-2.84,0-4.77,2.16-4.8,5.38V14.5A4.46,4.46,0,0,0,23,14a4.57,4.57,0,0,0-3.09,1.12q-.12-.2-.26-.38A4.31,4.31,0,0,0,16.05,13h0a4.75,4.75,0,0,0-2.27.55V6.44c0-2.4-.56-4.17-1.65-5.26A4.15,4.15,0,0,0,9.13,0h0C6.28,0,4.35,2.16,4.32,5.38V16.55A5,5,0,0,0,1.6,17.74a5.16,5.16,0,0,0-1.58,4c0,.41,0,1.26,0,2.32,0,2.73,0,6.84,0,8.41C.13,40.44,7.7,46.87,8,47.14a1.25,1.25,0,0,0,.8.29H26.77a1.25,1.25,0,0,0,.68-.2c.29-.19,7.08-4.66,7.08-12.07V11.5C34.53,9.09,34,7.32,32.89,6.23ZM32,35.16c0,5.27-4.47,8.9-5.65,9.77H9.3c-1.39-1.27-6.7-6.52-6.79-12.47,0-1.54,0-5.64,0-8.36,0-1.06,0-1.92,0-2.33a2.82,2.82,0,0,1,.74-2.17,2.35,2.35,0,0,1,1.06-.52v6.53a1.25,1.25,0,0,0,2.5,0V5.39c0-.68.19-2.88,2.31-2.89h0A1.64,1.64,0,0,1,10.37,3a5.16,5.16,0,0,1,.92,3.49l0,11.33c0,.2,0,.4,0,.61l0,3.28a1.25,1.25,0,0,0,1.25,1.24h0a1.25,1.25,0,0,0,1.25-1.25V17.91A2.34,2.34,0,0,1,16,15.5h0a1.8,1.8,0,0,1,1.55.73,3.76,3.76,0,0,1,.6,2.21v.18a7.7,7.7,0,0,0,0,.78l0,2.28a1.25,1.25,0,0,0,1.25,1.24h0a1.25,1.25,0,0,0,1.25-1.24l0-2.87A2.3,2.3,0,0,1,23,16.5h0a1.8,1.8,0,0,1,1.55.73,3.29,3.29,0,0,1,.55,1.51v2.92a1.36,1.36,0,0,0,.56,1,1.25,1.25,0,0,0,2-1V19.44a7.75,7.75,0,0,0,0-.86V10.44c0-.68.19-2.88,2.31-2.89A1.7,1.7,0,0,1,31.12,8,5.16,5.16,0,0,1,32,11.5Z"/><circle class="cls-2" cx="21.52" cy="28.86" r="0.75"/><circle class="cls-2" cx="14.02" cy="25.86" r="0.75"/><circle class="cls-2" cx="20.02" cy="25.86" r="0.75"/><circle class="cls-2" cx="27.52" cy="40.73" r="0.75"/><circle class="cls-2" cx="26.02" cy="37.73" r="0.75"/><circle class="cls-2" cx="29.02" cy="37.73" r="0.75"/><circle class="cls-2" cx="24.52" cy="34.73" r="0.75"/><circle class="cls-2" cx="27.52" cy="34.73" r="0.75"/><circle class="cls-2" cx="30.46" cy="34.73" r="0.75"/><circle class="cls-2" cx="29.02" cy="25.73" r="0.75"/><circle class="cls-2" cx="29.02" cy="19.73" r="0.75"/><circle class="cls-2" cx="30.52" cy="22.73" r="0.75"/><circle class="cls-2" cx="26.02" cy="31.73" r="0.75"/><circle class="cls-2" cx="29.02" cy="31.73" r="0.75"/><circle class="cls-2" cx="24.51" cy="28.73" r="0.75"/><circle class="cls-2" cx="18.51" cy="28.73" r="0.75"/><circle class="cls-2" cx="11.01" cy="25.73" r="0.75"/><circle class="cls-2" cx="17.01" cy="25.73" r="0.75"/><circle class="cls-2" cx="23.01" cy="25.73" r="0.75"/><circle class="cls-2" cx="23.01" cy="31.73" r="0.75"/><circle class="cls-2" cx="26.02" cy="25.73" r="0.75"/><circle class="cls-2" cx="27.52" cy="28.73" r="0.75"/><circle class="cls-2" cx="30.52" cy="28.73" r="0.75"/><circle class="cls-2" cx="29.02" cy="13.73" r="0.75"/><circle class="cls-2" cx="30.52" cy="16.73" r="0.75"/><circle class="cls-2" cx="30.52" cy="10.73" r="0.75"/></svg>